# xmcd
#
# Track frame offsets:
#	182
#	11750
#	20797
#	47745
#	68447
#	87500
#	101687
#	117160
#	131225
#	168362
#	181497
#	192955
#	206252
#	220750
#	233657
#	249127
#	263727
#
# Disc length: 3912 seconds
#
# Revision: 1
# Processed by: cddbd v1.5.1PL2 Copyright (c) Steve Scherf et al.
# Submitted via: SynApp - FreeCDDB Version: 2.1
#
DISCID=e60f4611
DTITLE=Various Artist - Woelm Nr 4 - Die Jazz Collection
DYEAR=1990
DGENRE=Jazz
TTITLE0=Louis Armstrong_Hello Dolly
TTITLE1=Ella Fitzgerald_Lover come back to me
TTITLE2=Benny Goodman_Stompin at the Savoy
TTITLE3=Duke Ellington_Take the A-Train
TTITLE4=Count Basie_One O Glock Jump
TTITLE5=Thomas Fats Waller_Stardust
TTITLE6=Nat King Cole_Mona Lisa
TTITLE7=Artie Shaw_Oh Lady be good
TTITLE8=Sidney Bechet_Basin Street Blues
TTITLE9=Louis Armstrong_I cant give you anything but Love
TTITLE10=Ella Fitzgerald_A Tisket-A Tasket
TTITLE11=Benny Goodman_King Porter Stomp
TTITLE12=Duke Ellington_Perdido
TTITLE13=Count Basie_Blee Blop Blues
TTITLE14=Fats Waller_Sweet and Slow
TTITLE15=Artie Show_What is this Thing called Love
TTITLE16=Sindney Bechet_Honeysuckle Rose
EXTD=YEAR: 1990
EXTT0=
EXTT1=
EXTT2=
EXTT3=
EXTT4=
EXTT5=
EXTT6=
EXTT7=
EXTT8=
EXTT9=
EXTT10=
EXTT11=
EXTT12=
EXTT13=
EXTT14=
EXTT15=
EXTT16=
PLAYORDER=
